# xmcd CD database file
#
# Track frame offsets:
#	150
#	16182
#	38168
#	51658
#	71189
#	93087
#	107146
#	120869
#	139080
#	157206
#	173920
#	192282
#
# Disc length: 2768 seconds
#
# Revision: 0
# Processed by: cddbd v1.5.2PL0 Copyright (c) Steve Scherf et al.
# Submitted via: CDex 2.07
#
DISCID=a40ace0c
DTITLE=Damian Wilson - Live In Rehearsal
DYEAR=2002
DGENRE=Power Ballad
TTITLE0=Brightest Way
TTITLE1=Homegrown
TTITLE2=Sha's Like A Fable
TTITLE3=Ine Life
TTITLE4=When I Leave This Land
TTITLE5=Heavenly Mine
TTITLE6=Please Don't Leave Me Til I Leave You
TTITLE7=I Want To Build My World
TTITLE8=Naked
TTITLE9=Adam's Child
TTITLE10=Win In The End
TTITLE11=She's Like A Fable (ft Rick Wakeman)
EXTD=YEAR: 2002
EXTT0=
EXTT1=
EXTT2=
EXTT3=
EXTT4=
EXTT5=
EXTT6=
EXTT7=
EXTT8=
EXTT9=
EXTT10=
EXTT11=
PLAYORDER=
